{"title":"November Christmas 2010 DVDRip XviD-OCW","uid":6840948,"size":1420790124,"categoryP":"video","categoryS":"movies","magnet":"?xt=urn:btih:ae4ff3e6ed0c7f4afd52e112a2bfced1857d4c1e&amp;dn=November+Christmas+2010+DVDRip+XviD-OCW&amp;tr=udp%3A%2F%2Ftracker.openbittorrent.com%3A80&amp;tr=udp%3A%2F%2Fopen.demonii.com%3A1337&amp;tr=udp%3A%2F%2Ftracker.coppersurfer.tk%3A6969&amp;tr=udp%3A%2F%2Fexodus.desync.com%3A6969","seeders":0,"leechers":1,"uploader":".BONE.","files":2,"time":1322161846,"description":"November Christmas 2010\n  &lt;a href=&quot;\nhttp://www.imdb.com/title/tt1713502/&quot; rel=&quot;nofollow&quot; target=&quot;_NEW&quot;&gt;\nhttp://www.imdb.com/title/tt1713502/&lt;/a&gt;\n \nNovember.Christmas.2010.DVDRip.XviD-OCW\n \nGeneral\nComplete name                    : November.Christmas.2010.DVDRip.XviD-OCW.avi\nFormat                           : AVI\nFormat/Info                      : Audio Video Interleave\nFile size                        : 1.31 GiB\nDuration                         : 1h 33mn\nOverall bit rate                 : 1 994 Kbps\nWriting library                  : MPlayer\n \nVideo\nID                               : 0\nFormat                           : MPEG-4 Visual\nFormat profile                   : Advanced Simple@L5\nFormat settings, BVOP            : 2\nFormat settings, QPel            : No\nFormat settings, GMC             : No warppoints\nFormat settings, Matrix          : Default (H.263)\nCodec ID                         : XVID\nCodec ID/Hint                    : XviD\nDuration                         : 1h 33mn\nBit rate                         : 1 732 Kbps\nWidth                            : 640 pixels\nHeight                           : 352 pixels\nDisplay aspect ratio             : 16:9\nFrame rate                       : 29.970 fps\nColor space                      : YUV\nChroma subsampling               : 4:2:0\nBit depth                        : 8 bits\nScan type                        : Progressive\nCompression mode                 : Lossy\nBits/(Pixel*Frame)               : 0.257\nStream size                      : 1.14 GiB (87%)\nWriting library                  : XviD 1.1.2 (UTC 2006-11-01)\n \nAudio\nID                               : 1\nFormat                           : MPEG Audio\nFormat version                   : Version 1\nFormat profile                   : Layer 3\nMode                             : Joint stereo\nCodec ID                         : 55\nCodec ID/Hint                    : MP3\nDuration                         : 1h 33mn\nBit rate mode                    : Constant\nBit rate                         : 256 Kbps\nChannel(s)                       : 2 channels\nSampling rate                    : 44.1 KHz\nCompression mode                 : Lossy\nDelay relative to video          : 33ms\nStream size                      : 172 MiB (13%)\nAlignment                        : Split accross interleaves\nInterleave, duration             : 500 ms (14.98 video frames)\nInterleave, preload duration     : 500 ms\nWriting library                  : LAME3.98.2\n ","torrent":{"xt":"urn:btih:ae4ff3e6ed0c7f4afd52e112a2bfced1857d4c1e","amp;dn":"November+Christmas+2010+DVDRip+XviD-OCW","amp;tr":["udp%3A%2F%2Ftracker.openbittorrent.com%3A80","udp%3A%2F%2Fopen.demonii.com%3A1337","udp%3A%2F%2Ftracker.coppersurfer.tk%3A6969","udp%3A%2F%2Fexodus.desync.com%3A6969"],"infoHash":"ae4ff3e6ed0c7f4afd52e112a2bfced1857d4c1e","infoHashBuffer":{"type":"Buffer","data":[174,79,243,230,237,12,127,74,253,82,225,18,162,191,206,209,133,125,76,30]},"announce":[],"urlList":[]}}